<?xml version="1.0" encoding="UTF-8" standalone="no"?>
<!-- Generator: Adobe Illustrator 16.0.0, SVG Export Plug-In . SVG Version: 6.00 Build 0)  -->
<!DOCTYPE svg  PUBLIC '-//W3C//DTD SVG 1.1//EN'  'http://www.w3.org/Graphics/SVG/1.1/DTD/svg11.dtd'>
<svg xmlns="http://www.w3.org/2000/svg" xml:space="preserve" height="178px" width="333px" version="1.1" y="0px" x="0px" xmlns:xlink="http://www.w3.org/1999/xlink" viewBox="0 0 333 178" enable-background="new 0 0 333 178">
<g id="Layer_1">
	<path id="Pemberton_Brown_Outline" d="m294.85 99.482l1.697 5.433-5.433-5.433h-16.256l-4.46 4.459-1.486-4.459h-28.174l-1.144 3.431-3.431-3.431h-52.859l1.155 4.619-4.619-4.619h-40.169l-3.219 7.289-3.219-7.289h-44.285l0.392 1.568-1.569-1.568h-27.672l2.389 9.56v23.435l-2.389 9.56h22.377l-2.619-10.476v-1.431h6.998l4.482-4.481v6.828l-2.389 9.56h46.417l-0.572-2.29h2.579l-0.573 2.29h43.015l4.619-4.619-1.155 4.619h83.611l-3.406-10.223v-15.371l2.32 0.774v15.791l9.028 9.028h16.256l5.841-5.841-1.461 5.841h35.328v-32.994l2.179-8.714v-0.846h-38.14zm-178.3 24.358l-0.033 0.011v-6.648l0.033 0.011v6.63zm94.33 0l-0.031 0.011v-6.648l0.031 0.011v6.63zm31.77 6.36l-2.126-5.811 4.205-4.204v-3.275l1.406-0.469v15.37l-0.933 2.799-2.55-4.42z" fill="#36231C"/>
	<path d="m64.407 138.69l1.451-5.806v-24.25l-1.451-5.806h22.008l6.613 6.612v9.823l-7.529 7.528h-8.956v5.184l1.68 6.723h-13.816zm15.73-21.67l1.318-0.659 0.43-0.859v-1.848l-0.43-0.859-1.318-0.659h-3.594v4.885h3.594z" fill="#FFFBD1"/>
	<polygon points="93.256 138.69 94.707 132.89 94.707 108.63 93.256 102.82 115.39 102.82 119.32 114.62 111.88 112.14 105.39 112.14 105.39 114.73 107.52 114.73 113.18 112.85 113.18 125.92 107.52 124.04 105.39 124.04 105.39 128.92 111.88 128.92 120.01 126.21 115.85 138.69" fill="#FFFBD1"/>
	<polygon points="141.11 138.69 142.56 132.89 142.56 124.74 137.47 136.4 134.75 136.4 129.66 124.74 129.66 132.89 131.11 138.69 118.44 138.69 119.89 132.89 119.89 108.63 118.44 102.82 131.06 102.82 136.45 115.04 141.85 102.82 154.47 102.82 153.02 108.63 153.02 132.89 154.47 138.69" fill="#FFFBD1"/>
	<path d="m156.91 138.69l1.452-5.807v-24.257l-1.452-5.807h21.55l6.155 6.156v7.761l-2.645 2.645 3.103 3.102v9.594l-6.613 6.613h-21.56zm15.27-9.54l1.317-0.659 0.43-0.859v-1.848l-0.43-0.859-1.317-0.659h-3.137v4.885h3.14zm0.46-14.19l0.859-0.43 0.43-0.86v-0.474l-0.429-0.859-0.86-0.43h-3.595v3.053h3.6z" fill="#FFFBD1"/>
	<polygon points="187.58 138.69 189.04 132.89 189.04 108.63 187.58 102.82 209.72 102.82 213.65 114.62 206.2 112.14 199.72 112.14 199.72 114.73 201.86 114.73 207.51 112.85 207.51 125.92 201.86 124.04 199.72 124.04 199.72 128.92 206.2 128.92 214.34 126.21 210.18 138.69" fill="#FFFBD1"/>
	<path d="m230.32 138.69l-4.042-12.363h-1.366v6.558l1.45 5.806h-13.59l1.452-5.807v-24.257l-1.452-5.807h22.009l6.613 6.612v9.365l-4.735 4.735 2.959 8.086 4.094 7.071h-13.39zm-1.82-21.67l1.318-0.659 0.43-0.859v-1.848l-0.43-0.859-1.318-0.659h-3.594v4.885h3.59z" fill="#FFFBD1"/>
	<polygon points="247.37 138.69 249.48 132.36 249.48 112.59 247.12 112.59 238.98 115.31 243.15 102.82 266.5 102.82 270.66 115.31 262.53 112.59 260.17 112.59 260.17 132.36 262.28 138.69" fill="#FFFBD1"/>
	<path d="m276.24 138.69l-7.071-7.071v-21.729l7.071-7.07h13.486l7.07 7.07v21.729l-7.07 7.071h-13.49zm8.13-9.77l0.86-0.43 0.43-0.859v-14.211l-0.43-0.86-0.86-0.43h-2.763l-0.859 0.43-0.43 0.86v14.211l0.43 0.859 0.859 0.43h2.76z" fill="#FFFBD1"/>
	<polygon points="318.44 138.69 311 123.8 311 132.89 312.45 138.69 299.77 138.69 301.23 132.89 301.23 108.69 299.4 102.82 312.1 102.82 317.71 114.05 317.71 108.63 316.26 102.82 328.93 102.82 327.48 108.63 327.48 138.69" fill="#FFFBD1"/>
	<path id="Pemberton_Orange_Fill" d="m91.12 118.47l-6.411 6.41h-9.616l-0.458 0.458v6.869l1.145 4.579h-8.93l0.916-3.663v-24.728l-0.916-3.663h18.775l5.495 5.494v8.24zm-7.327-2.52v-2.748l-0.916-1.831-2.29-1.146h-5.495l-0.458 0.458v7.785l0.458 0.458h5.495l2.29-1.146 0.916-1.82zm33.197 13.28l-2.519 7.556h-18.77l0.916-3.663v-24.728l-0.916-3.663h18.316l2.29 6.868-4.121-1.374h-8.243l-0.458 0.458v5.495l0.458 0.458h3.893l3.434-1.145v7.784l-3.434-1.145h-3.893l-0.458 0.458v7.556l0.687 0.687h8.014l4.8-1.64zm35.03 7.56h-8.471l0.916-3.663v-16.485l0.229-1.832-0.687 1.832-7.785 17.858h-0.229l-7.785-17.858-0.687-1.832 0.229 1.832v16.485l0.916 3.663h-7.785l0.916-3.663v-24.728l-0.916-3.663h8.929l6.411 14.516 0.229 1.053 0.229-1.053 6.411-14.516h8.929l-0.916 3.663v24.728l0.92 3.67zm31.14-5.5l-5.495 5.495h-18.316l0.916-3.663v-24.728l-0.916-3.663h18.316l5.037 5.037v6.182l-3.435 3.435 3.893 3.892v8.02zm-7.32-17.17v-1.374l-0.915-1.831-1.832-0.916h-5.495l-0.458 0.458v5.953l0.458 0.458h5.495l1.832-0.916 0.91-1.83zm0 13.97v-2.748l-0.915-1.831-2.29-1.146h-5.037l-0.458 0.458v7.556l0.688 0.688h4.808l2.29-1.146 0.92-1.83zm35.48 1.14l-2.519 7.556h-18.774l0.915-3.663v-24.728l-0.915-3.663h18.316l2.289 6.868-4.121-1.374h-8.242l-0.458 0.458v5.495l0.458 0.458h3.893l3.434-1.145v7.784l-3.434-1.145h-3.893l-0.458 0.458v7.556l0.687 0.687h8.014l4.81-1.64zm29.08 7.56h-8.701l-3.892-11.906-0.916-0.458h-3.435l-0.458 0.458v8.243l0.916 3.663h-8.7l0.916-3.663v-24.728l-0.916-3.663h18.774l5.495 5.494v7.785l-5.037 5.037 3.435 9.387 2.52 4.36zm-8.24-20.84v-2.748l-0.915-1.831-2.29-1.146h-5.495l-0.458 0.458v7.785l0.458 0.458h5.495l2.29-1.146 0.91-1.82zm35.49-3.66l-4.809-1.603h-4.121l-0.458 0.458v21.522l1.374 4.121h-9.616l1.374-4.121v-21.522l-0.458-0.458h-4.121l-4.809 1.603 2.519-7.555h20.606l2.53 7.55zm27.25 18.54l-5.953 5.953h-11.905l-5.953-5.953v-20.148l5.953-5.952h11.905l5.953 5.952v20.15zm-7.33-2.74v-15.111l-0.916-1.832-1.832-0.916h-3.663l-1.832 0.916-0.916 1.832v15.111l0.916 1.831 1.832 0.916h3.663l1.832-0.916 0.92-1.83zm38.92-23.36l-0.916 3.663v28.391h-5.953l-9.846-19.69-0.915-2.29 0.229 2.29v16.027l0.916 3.663h-7.785l0.916-3.663v-24.728l-1.145-3.663h8.93l8.014 16.026 0.915 2.29-0.229-2.29v-12.363l-0.916-3.663h7.78z" fill="#DE8126"/>
	<path id="Scott_Brown_Fill" d="m311.64 47.138h0.729l20.557 6.852-10.415-31.245h-47.831l-3.394 10.179-0.651-10.18h-47.832l-3.625 10.874-10.872-10.873h-27.63l-12.784 12.782-4.261-12.783h-28.804l-15.331 15.331-5.109-15.331h-29.663l-14.949 14.949v18.267l11.37 11.37 12.402 2.894v0.913h-9.019l-20.378-6.992 10.461 31.385h30.927l14.64-14.64 14.641 14.64h29.653l4.049-12.146 12.15 12.146h27.606l14.947-14.948v-30.214l9.692-3.231h0.728v32.991l-5.14 15.402h36.358l-5.134-15.402v-32.991h0.729l5.449 1.817 6.715 2.238 6.714-2.238 5.452-1.817h0.728v32.99l-5.134 15.403h36.359l-5.136-15.403v-32.989zm-209.71-0.85h3.188l13.936 4.646v6.941l-9.903-9.902-7.23-1.685zm52.43 24.849h-7.103l-0.845-0.422-0.421-0.844v-21.467l0.421-0.845 0.845-0.422h6.403l12.087 4.108v16.097l-11.39 3.795zm41.95 0.001h-3.624v-24.849h3.624v24.849z" fill="#36231C"/>
	<polygon points="77.196 91.715 70.044 70.259 83.728 74.954 94.291 74.954 96.229 73.985 97.197 72.046 97.197 68.389 95.642 66.833 82.907 63.862 73.426 54.38 73.426 39.274 86.139 26.561 111.46 26.561 118.17 46.683 105.54 42.472 95.641 42.472 93.703 43.442 92.734 45.38 92.734 46.915 94.289 48.471 107.02 51.442 116.5 60.923 116.5 79.001 103.79 91.715" fill="#FFFBD1"/>
	<polygon points="136.23 91.715 122.67 78.152 122.67 40.123 136.23 26.561 160.71 26.561 167.85 47.996 154.1 43.321 146.16 43.321 143.37 44.715 141.98 47.503 141.98 70.773 143.37 73.56 146.16 74.954 154.78 74.954 168.69 70.319 161.56 91.715" fill="#FFFBD1"/>
	<path d="m182.08 91.715l-12.71-12.715v-39.727l12.714-12.713h24.445l12.714 12.713v39.727l-12.714 12.714h-24.44zm14.94-16.761l1.939-0.969 0.969-1.939v-26.666l-0.969-1.939-1.939-0.969h-5.44l-1.938 0.969-0.969 1.939v26.665l0.969 1.939 1.938 0.969h5.44z" fill="#FFFBD1"/>
	<polygon points="233.64 91.715 237.29 80.747 237.29 43.321 232.13 43.321 218.22 47.957 225.36 26.561 267.69 26.561 274.35 46.545 272.46 47.171 260.91 43.321 255.75 43.321 255.75 80.747 259.41 91.715" fill="#FFFBD1"/>
	<polygon points="285.51 91.715 289.17 80.747 289.17 43.321 284.01 43.321 274.35 46.541 272.45 47.173 270.57 46.542 277.23 26.561 319.56 26.561 326.7 47.957 312.79 43.321 307.63 43.321 307.63 80.747 311.28 91.715" fill="#FFFBD1"/>
	<path d="m113.63 77.815l-11.037 11.037h-23.341l-4.669-14.008 8.66 2.971h11.716l3.396-1.698 1.698-3.396v-5.519l-2.972-2.972-12.735-2.97-8.065-8.066v-12.735l11.037-11.037h22.074l4.245 12.735-7.641-2.547h-11.044l-3.396 1.698-1.698 3.396v3.396l2.971 2.972 12.735 2.971 8.066 8.065v15.707zm50.52-2.971l-4.669 14.008h-22.074l-11.886-11.886v-35.657l11.886-11.886h21.225l4.669 14.009-8.745-2.972h-9.084l-4.245 2.123-2.122 4.245v24.621l2.122 4.245 4.245 2.123h9.764l8.91-2.973zm52.22 2.971l-11.037 11.037h-22.074l-11.036-11.037v-37.356l11.036-11.037h22.074l11.037 11.037v37.356zm-13.59-5.093v-28.017l-1.698-3.396-3.396-1.698h-6.792l-3.396 1.698-1.697 3.396v28.017l1.697 3.396 3.396 1.698h6.792l3.396-1.698 1.7-3.396z" fill="#DE8126"/>
	<path d="m270.28 43.431l-8.914-2.972h-7.642l-0.849 0.849v39.903l2.547 7.641h-17.829l2.547-7.641v-39.902l-0.849-0.849h-7.642l-8.914 2.972 4.67-14.009h38.204l4.66 14.008zm51.88 0l-8.914-2.972h-7.642l-0.849 0.849v39.903l2.547 7.641h-17.829l2.547-7.641v-39.902l-0.849-0.849h-7.642l-8.914 2.972 4.669-14.009h38.205l4.66 14.008z" fill="#DE8126"/>
	<g id="guitar">
			<defs>
				<rect id="SVGID_1_" y=".012" width="58.851" height="177.98"/>
			</defs>
			<clipPath id="SVGID_2_">
				<use overflow="visible" xlink:href="#SVGID_1_"/>
			</clipPath>
			<path fill="#36231C" d="m51.056 137.72c-3.238-3.465-5.365-5.463-5.542-7.73-0.32-4.09 5.184-9.202 4.461-15.717-0.478-4.246-6.229-9.738-8.736-3.908-2.509 5.827-6.673 4.139-8.053 2.276-0.088-0.125-0.175-0.255-0.252-0.386l-0.091-0.003-1.568-57.579c-0.064-2.583 1.322-3.68 3.071-2.437l0.455 1.028c0.457 1.017 2.554 1.446 3.262 1.815 0.71 0.362 2.844-0.044 4.681 1.322 1.83 1.365 2.766 4.083 2.495 2.859l-0.272-1.224c0.639-0.753-0.304-2.891-2.096-4.754 0 0-1.058-1.102-2.37-2.829l-1.018-1.341c-1.013-1.626 0.265-2.781 2.845-2.576 0 0 0.953 0.076-0.173-0.639-1.139-0.716-7.993-6.932-6.19-6.236 1.801 0.696 4.349-1.256 2.96-1.316-1.391-0.064-5.424-2.084-4.3-2.31 1.124-0.229 8.025-2.483 6.029-2.683-1.289-0.132-2.008-0.385-2.008-0.385-2.439-0.857-3.902-1.941-3.249-2.406 0.652-0.468 0.72-1.348 0.149-1.954-0.57-0.607-0.349-1.076 0.492-1.037 0.842 0.038 0.696-1.523-0.317-3.469l0.684 0.921c0.68 0.924 1.254 0.878 1.254 0.878 2.578-0.212 3.793-0.941 2.704-1.616-1.086-0.678-1.846-1.629-1.686-2.11 0.16-0.483-0.175-0.888-0.74-0.898-0.569-0.011-1.887-0.645-2.93-1.409-1.044-0.761-1.178-1.407-0.299-1.433 0.882-0.026 0.945-0.636 0.146-1.358-0.8-0.725-1.078-0.193-0.62 1.177l-0.988-2.833c-1.039-2.975-1.231-4.33-1.231-4.33-0.372-2.56-1.126-6.704-1.683-9.216-0.556-2.512-1.359-2.481-1.788 0.066 0 0-0.916 5.462-1.887 7.257-0.973 1.793-2.692 4.355-2.692 4.355-1.443 2.146-1.235 3.158 0.46 2.255l0.569-0.256c0.569-0.253-1.074 1.568-2.196 3.024-1.127 1.453-1.465 1.703-1.465 1.703-2.085 1.531-2.291 2.685-0.455 2.557l0.52-0.369c0.514-0.366 2.971 0.014 0.051 2.944l-2.917 2.937c-1.547 1.063-0.705 1.784 1.87 1.596 0 0 0.066-0.008 1.189-0.231 1.125-0.232 0.915 0.818 0.937 1.487 0.026 0.67-3.789 1.278-4.118 2.379-0.327 1.1-1.044 1.589-1.044 1.589-2.134 1.456-3.068 2.409-2.076 2.116l2.896-1.151 2.892-1.154c0.194-0.237-0.108 1.433-0.669 3.707l-1.223 1.222c-1.225 1.23-5.963 3.746-4.425 4.153 1.545 0.401 3.743-0.168 2.998 0.302-0.743 0.469-8.35 4.807-8.086 5.095 0.265 0.291 3.717-0.837 5.434-1.872l1.72-1.037c0.747 1.014 2.981 0.479 4.958-1.187 0 0 0.17-0.141-0.194 0.563-0.366 0.708-1.595 2.057-1.595 2.057-1.74 1.908-2.273 3.135-1.182 2.721l1.477-0.656c1.481-0.659 2.526 0.78 2.87 0.626l0.339-0.146c0.613-1.324 1.084-0.291 1.045 2.297l-0.542 59.889c-0.515 0.813-1.477 1.532-3.239 1.746-4.686 0.56-4.454-5.333-6.874-6.523-2.419-1.188-5.627 0.304-6.614 6.07-0.988 5.768 4.175 10.965 4.602 14.865 0.425 3.904-5.047 7.246-8.763 12.896-3.718 5.653-3.072 11.143-3.072 11.143 0.255 7.233 6.514 25.551 30.077 25.066 23.564-0.478 28.045-16.451 28.678-23.421 0.632-6.98-4.506-13.39-7.742-16.85m-8.365-23.75c-0.006-1.204 0.961-2.185 2.164-2.192 1.203-0.01 2.185 0.96 2.191 2.164 0.008 1.202-0.96 2.184-2.164 2.192-1.202 0.01-2.182-0.96-2.191-2.16" clip-path="url(#SVGID_2_)"/>
	</g>
	<g opacity=".9">
			<defs>
				<rect id="SVGID_3_" y="112.33" x="43.247" height="3.257" width="3.258"/>
			</defs>
			<clipPath id="SVGID_4_">
				<use overflow="visible" xlink:href="#SVGID_3_"/>
			</clipPath>
			<path fill="#EC1C24" d="m44.866 112.33c-0.899 0.004-1.624 0.738-1.619 1.637 0.007 0.899 0.74 1.625 1.641 1.619 0.898-0.006 1.622-0.739 1.617-1.64-0.004-0.91-0.739-1.63-1.639-1.62" clip-path="url(#SVGID_4_)"/>
	</g>
</g>
</svg>
